<mxfile host="app.diagrams.net" modified="2023-07-03T16:40:47.556Z" agent="Mozilla/5.0 (Windows NT 10.0; Win64; x64) AppleWebKit/537.36 (KHTML, like Gecko) Chrome/114.0.0.0 Safari/537.36" etag="ygNeuidlY3WzKY3l19u7" version="21.3.6" type="device">
  <diagram name="Page-1" id="c4acf3e9-155e-7222-9cf6-157b1a14988f">
    <mxGraphModel dx="1290" dy="549" grid="1" gridSize="10" guides="1" tooltips="1" connect="1" arrows="1" fold="1" page="1" pageScale="1" pageWidth="850" pageHeight="1100" background="none" math="0" shadow="0">
      <root>
        <mxCell id="0" />
        <mxCell id="1" parent="0" />
        <mxCell id="q3BTvN16tAjIIbaI-m22-29" value="" style="shape=folder;fontStyle=1;spacingTop=10;tabWidth=210;tabHeight=40;tabPosition=left;html=1;whiteSpace=wrap;align=left;" parent="1" vertex="1">
          <mxGeometry x="1750" y="490" width="280" height="380" as="geometry" />
        </mxCell>
        <mxCell id="q3BTvN16tAjIIbaI-m22-13" value="" style="shape=folder;fontStyle=1;spacingTop=10;tabWidth=110;tabHeight=40;tabPosition=left;html=1;whiteSpace=wrap;align=left;" parent="1" vertex="1">
          <mxGeometry x="1317.5" y="1470" width="225" height="330" as="geometry" />
        </mxCell>
        <mxCell id="q3BTvN16tAjIIbaI-m22-1" value="&lt;p style=&quot;margin:0px;margin-top:4px;text-align:center;&quot;&gt;&lt;b&gt;&amp;lt;class&amp;gt;&lt;/b&gt;&lt;/p&gt;&lt;p style=&quot;margin:0px;margin-top:4px;text-align:center;&quot;&gt;&lt;b&gt;CommandsHandler&amp;nbsp;&lt;/b&gt;&lt;br&gt;&lt;/p&gt;&lt;hr size=&quot;1&quot;&gt;&lt;p style=&quot;margin:0px;margin-left:4px;&quot;&gt;- service: NsdServiceInfo&lt;/p&gt;&lt;p style=&quot;margin:0px;margin-left:4px;&quot;&gt;- client: UdpClient&lt;/p&gt;&lt;p style=&quot;margin:0px;margin-left:4px;&quot;&gt;- &lt;u&gt;pairingCode&lt;/u&gt;: int&amp;nbsp;&lt;/p&gt;&lt;hr size=&quot;1&quot;&gt;&lt;p style=&quot;margin:0px;margin-left:4px;&quot;&gt;+ getService(): NsdServiceInfo&lt;/p&gt;&lt;p style=&quot;margin:0px;margin-left:4px;&quot;&gt;+ setService(service: NsdServiceInfo): void&lt;/p&gt;&lt;p style=&quot;margin:0px;margin-left:4px;&quot;&gt;+ getClient9): UdpClient&lt;/p&gt;&lt;p style=&quot;margin:0px;margin-left:4px;&quot;&gt;+ setClient(client: UdpClient): void&lt;/p&gt;&lt;p style=&quot;margin:0px;margin-left:4px;&quot;&gt;+ getRandomNumber(): int&lt;/p&gt;&lt;p style=&quot;margin:0px;margin-left:4px;&quot;&gt;+ getPairingCode(): int&lt;/p&gt;&lt;p style=&quot;margin:0px;margin-left:4px;&quot;&gt;+ disconnect(): void&lt;/p&gt;&lt;p style=&quot;margin:0px;margin-left:4px;&quot;&gt;+ onPowerClicked(): void&lt;/p&gt;&lt;p style=&quot;margin:0px;margin-left:4px;&quot;&gt;+ onNumberClicked(number: int): void&lt;/p&gt;&lt;p style=&quot;margin:0px;margin-left:4px;&quot;&gt;+ onGuideClicked(): void&lt;/p&gt;&lt;p style=&quot;margin:0px;margin-left:4px;&quot;&gt;+ onMovieButtonClicked(): void&lt;/p&gt;&lt;p style=&quot;margin:0px;margin-left:4px;&quot;&gt;+ onLiveTvClicked(): void&lt;/p&gt;&lt;p style=&quot;margin:0px;margin-left:4px;&quot;&gt;+ onHomeClicked(): void&lt;/p&gt;&lt;p style=&quot;margin:0px;margin-left:4px;&quot;&gt;+ onVolumeDownClicked(): void&lt;/p&gt;&lt;p style=&quot;margin:0px;margin-left:4px;&quot;&gt;+ onVolumeMuteClicked(): void&lt;/p&gt;&lt;p style=&quot;margin:0px;margin-left:4px;&quot;&gt;+ onVolumeUpClicked(): void&lt;/p&gt;&lt;p style=&quot;margin:0px;margin-left:4px;&quot;&gt;+ onChannelDownClicked(): void&lt;/p&gt;&lt;p style=&quot;margin:0px;margin-left:4px;&quot;&gt;+ onChannelUpClicked(): void&lt;/p&gt;&lt;p style=&quot;margin:0px;margin-left:4px;&quot;&gt;+ onDpadUpClicked(): void&lt;/p&gt;&lt;p style=&quot;margin:0px;margin-left:4px;&quot;&gt;+ onDpadLeftClicked(): void&lt;/p&gt;&lt;p style=&quot;margin:0px;margin-left:4px;&quot;&gt;+ onDpadDownClicked(): void&lt;/p&gt;&lt;p style=&quot;margin:0px;margin-left:4px;&quot;&gt;+ onDpadRightClicked(): void&lt;/p&gt;&lt;p style=&quot;margin:0px;margin-left:4px;&quot;&gt;+ onDpadOkClicked(): void&lt;/p&gt;&lt;p style=&quot;margin:0px;margin-left:4px;&quot;&gt;+ onBackClicked(): void&lt;/p&gt;&lt;p style=&quot;margin:0px;margin-left:4px;&quot;&gt;+ onDelete(): void&lt;/p&gt;&lt;p style=&quot;margin:0px;margin-left:4px;&quot;&gt;+ onKeyboardSubmitClicked(s: string): void&lt;/p&gt;&lt;p style=&quot;margin:0px;margin-left:4px;&quot;&gt;+ onServerCommandReceived(msg: strig): void&lt;/p&gt;" style="verticalAlign=top;align=left;overflow=fill;fontSize=12;fontFamily=Helvetica;html=1;whiteSpace=wrap;" parent="1" vertex="1">
          <mxGeometry x="560" y="1010" width="320" height="570" as="geometry" />
        </mxCell>
        <mxCell id="q3BTvN16tAjIIbaI-m22-2" value="&lt;p style=&quot;margin:0px;margin-top:4px;text-align:center;&quot;&gt;&lt;b&gt;&amp;lt;class&amp;gt;&lt;/b&gt;&lt;/p&gt;&lt;p style=&quot;margin:0px;margin-top:4px;text-align:center;&quot;&gt;&lt;b&gt;RemoteView&lt;/b&gt;&lt;/p&gt;&lt;hr size=&quot;1&quot;&gt;&lt;p style=&quot;margin:0px;margin-left:4px;&quot;&gt;- vibrator: Vibrator&lt;/p&gt;&lt;p style=&quot;margin:0px;margin-left:4px;&quot;&gt;- etInput: EditText&lt;/p&gt;&lt;p style=&quot;margin:0px;margin-left:4px;&quot;&gt;- searchPattern: string&lt;/p&gt;&lt;p style=&quot;margin:0px;margin-left:4px;&quot;&gt;- &lt;u&gt;HOSTNAME&lt;/u&gt;: string&lt;/p&gt;&lt;p style=&quot;margin:0px;margin-left:4px;&quot;&gt;- &lt;u&gt;PORT&lt;/u&gt;: int&lt;/p&gt;&lt;p style=&quot;margin:0px;margin-left:4px;&quot;&gt;- &lt;u&gt;RECORDER_SAMPLER_RATE&lt;/u&gt;: int&lt;/p&gt;&lt;p style=&quot;margin:0px;margin-left:4px;&quot;&gt;- &lt;u&gt;RECRDER_CHANNELS&lt;/u&gt;: int&lt;/p&gt;&lt;p style=&quot;margin:0px;margin-left:4px;&quot;&gt;- &lt;u&gt;RECORDER_AUDIO_ENCODING&lt;/u&gt;: int&lt;/p&gt;&lt;p style=&quot;margin:0px;margin-left:4px;&quot;&gt;+ mAudioRecord: AudioRecord&lt;/p&gt;&lt;p style=&quot;margin:0px;margin-left:4px;&quot;&gt;- mIsRecording: boolean&lt;/p&gt;&lt;p style=&quot;margin:0px;margin-left:4px;&quot;&gt;- mStreamingClient: StreamingRecognizeClient&lt;/p&gt;&lt;p style=&quot;margin:0px;margin-left:4px;&quot;&gt;- mBufferSize; int&lt;/p&gt;&lt;p style=&quot;margin:0px;margin-left:4px;&quot;&gt;+ startForResult: ActivityResolveLauncher&amp;lt;Intent&amp;gt;&lt;/p&gt;&lt;hr size=&quot;1&quot;&gt;&lt;p style=&quot;margin:0px;margin-left:4px;&quot;&gt;# onCreate(savedInstanceState: Bundle): void&lt;/p&gt;&lt;p style=&quot;margin:0px;margin-left:4px;&quot;&gt;# onDestroy(): void&lt;/p&gt;&lt;p style=&quot;margin:0px;margin-left:4px;&quot;&gt;+ onResume(): void&lt;/p&gt;&lt;p style=&quot;margin:0px;margin-left:4px;&quot;&gt;+ onPause(): void&lt;/p&gt;&lt;p style=&quot;margin:0px;margin-left:4px;&quot;&gt;+ onClick(view: View): void&lt;/p&gt;&lt;p style=&quot;margin:0px;margin-left:4px;&quot;&gt;+ onBakPressed(): void&lt;/p&gt;&lt;p style=&quot;margin:0px;margin-left:4px;&quot;&gt;- initialize(): void&lt;/p&gt;&lt;p style=&quot;margin:0px;margin-left:4px;&quot;&gt;+ onMicClicked(): void&lt;/p&gt;&lt;p style=&quot;margin:0px;margin-left:4px;&quot;&gt;- startRecording(): void&lt;/p&gt;&lt;p style=&quot;margin:0px;margin-left:4px;&quot;&gt;- readData(): void&lt;/p&gt;&lt;p style=&quot;margin:0px;margin-left:4px;&quot;&gt;+ onMicOriginalCliked(): void&lt;/p&gt;" style="verticalAlign=top;align=left;overflow=fill;fontSize=12;fontFamily=Helvetica;html=1;whiteSpace=wrap;" parent="1" vertex="1">
          <mxGeometry x="580" y="480" width="280" height="460" as="geometry" />
        </mxCell>
        <mxCell id="q3BTvN16tAjIIbaI-m22-3" value="&lt;p style=&quot;margin:0px;margin-top:4px;text-align:center;&quot;&gt;&lt;b&gt;&amp;lt;class&amp;gt;&lt;/b&gt;&lt;/p&gt;&lt;p style=&quot;margin:0px;margin-top:4px;text-align:center;&quot;&gt;&lt;b&gt;androidx.appcompat.app.AppCompatActivity&lt;/b&gt;&lt;/p&gt;&lt;p style=&quot;margin:0px;margin-left:4px;&quot;&gt;&lt;br&gt;&lt;/p&gt;" style="verticalAlign=top;align=left;overflow=fill;fontSize=12;fontFamily=Helvetica;html=1;whiteSpace=wrap;" parent="1" vertex="1">
          <mxGeometry x="380" y="370" width="310" height="50" as="geometry" />
        </mxCell>
        <mxCell id="q3BTvN16tAjIIbaI-m22-4" value="&lt;p style=&quot;margin:0px;margin-top:4px;text-align:center;&quot;&gt;&lt;b&gt;&amp;lt;interface&amp;gt;&lt;/b&gt;&lt;/p&gt;&lt;p style=&quot;margin:0px;margin-top:4px;text-align:center;&quot;&gt;&lt;b&gt;android.view.View.OnClickListener&lt;/b&gt;&lt;/p&gt;&lt;p style=&quot;margin:0px;margin-left:4px;&quot;&gt;&lt;br&gt;&lt;/p&gt;" style="verticalAlign=top;align=left;overflow=fill;fontSize=12;fontFamily=Helvetica;html=1;whiteSpace=wrap;" parent="1" vertex="1">
          <mxGeometry x="740" y="370" width="310" height="50" as="geometry" />
        </mxCell>
        <mxCell id="q3BTvN16tAjIIbaI-m22-5" value="" style="endArrow=block;dashed=1;endFill=0;endSize=12;html=1;rounded=0;exitX=0.5;exitY=0;exitDx=0;exitDy=0;entryX=0.5;entryY=1;entryDx=0;entryDy=0;" parent="1" source="q3BTvN16tAjIIbaI-m22-2" target="q3BTvN16tAjIIbaI-m22-4" edge="1">
          <mxGeometry width="160" relative="1" as="geometry">
            <mxPoint x="430" y="1000" as="sourcePoint" />
            <mxPoint x="590" y="1000" as="targetPoint" />
          </mxGeometry>
        </mxCell>
        <mxCell id="q3BTvN16tAjIIbaI-m22-6" value="Extends" style="endArrow=block;endSize=16;endFill=0;html=1;rounded=0;exitX=0.5;exitY=0;exitDx=0;exitDy=0;entryX=0.5;entryY=1;entryDx=0;entryDy=0;" parent="1" source="q3BTvN16tAjIIbaI-m22-2" target="q3BTvN16tAjIIbaI-m22-3" edge="1">
          <mxGeometry width="160" relative="1" as="geometry">
            <mxPoint x="640" y="810" as="sourcePoint" />
            <mxPoint x="800" y="810" as="targetPoint" />
          </mxGeometry>
        </mxCell>
        <mxCell id="q3BTvN16tAjIIbaI-m22-7" value="&lt;p style=&quot;margin:0px;margin-top:4px;text-align:center;&quot;&gt;&lt;b&gt;&amp;lt;class&amp;gt;&lt;/b&gt;&lt;/p&gt;&lt;p style=&quot;margin:0px;margin-top:4px;text-align:center;&quot;&gt;&lt;b&gt;StreamingRecognizeClient&lt;/b&gt;&lt;/p&gt;&lt;hr size=&quot;1&quot;&gt;&lt;p style=&quot;margin:0px;margin-left:4px;&quot;&gt;- mSamplingRate: int&lt;/p&gt;&lt;p style=&quot;margin:0px;margin-left:4px;&quot;&gt;- mChannel: MannagedChannel&lt;/p&gt;&lt;p style=&quot;margin:0px;margin-left:4px;&quot;&gt;- mSpeechClient: SpeechGrpc.SpeechStub&lt;/p&gt;&lt;p style=&quot;margin:0px;margin-left:4px;&quot;&gt;- mIsInitialized: boolean&lt;/p&gt;&lt;p style=&quot;margin:0px;margin-left:4px;&quot;&gt;- requestObserver: StreamObserver&amp;lt;StreamingRecognizeRequest&amp;gt;&lt;/p&gt;&lt;p style=&quot;margin:0px;margin-left:4px;&quot;&gt;- &lt;u&gt;OAUTH2_SCOPE&lt;/u&gt;: List&amp;lt;String&amp;gt;&lt;/p&gt;&lt;hr size=&quot;1&quot;&gt;&lt;p style=&quot;margin:0px;margin-left:4px;&quot;&gt;+ streamingRecognizeClient(channel: ManagedChannel, samplingRate: int): void&lt;/p&gt;&lt;p style=&quot;margin:0px;margin-left:4px;&quot;&gt;- initializeRecognition(): void&lt;/p&gt;&lt;p style=&quot;margin:0px;margin-left:4px;&quot;&gt;+ onNext(response: StreamingRecognizeResponse): void&lt;/p&gt;&lt;p style=&quot;margin:0px;margin-left:4px;&quot;&gt;+ onError(error: Throwable): void&lt;/p&gt;&lt;p style=&quot;margin:0px;margin-left:4px;&quot;&gt;+ onCompleted(): void&lt;/p&gt;&lt;p style=&quot;margin:0px;margin-left:4px;&quot;&gt;+ recognizeBytes(audioBytes: byte[], size: int): void&lt;/p&gt;&lt;p style=&quot;margin:0px;margin-left:4px;&quot;&gt;+ finish(): void&lt;/p&gt;&lt;p style=&quot;margin:0px;margin-left:4px;&quot;&gt;+ &lt;u&gt;createChannel&lt;/u&gt;(host: String, port: int, credentials: InputStream): ManagedChannel&lt;/p&gt;&lt;p style=&quot;margin:0px;margin-left:4px;&quot;&gt;+ shutdown(): void&lt;/p&gt;&lt;p style=&quot;margin:0px;margin-left:4px;&quot;&gt;+ checkSaid(recordedData: string): void&lt;/p&gt;&lt;p style=&quot;margin:0px;margin-left:4px;&quot;&gt;&lt;br&gt;&lt;/p&gt;" style="verticalAlign=top;align=left;overflow=fill;fontSize=12;fontFamily=Helvetica;html=1;whiteSpace=wrap;" parent="1" vertex="1">
          <mxGeometry x="1070" y="660" width="450" height="310" as="geometry" />
        </mxCell>
        <mxCell id="q3BTvN16tAjIIbaI-m22-8" value="&lt;p style=&quot;margin:0px;margin-top:4px;text-align:center;&quot;&gt;&lt;b&gt;&amp;lt;class&amp;gt;&lt;/b&gt;&lt;/p&gt;&lt;p style=&quot;margin:0px;margin-top:4px;text-align:center;&quot;&gt;&lt;b&gt;stub.StreamObserver&lt;/b&gt;&lt;/p&gt;&lt;p style=&quot;margin:0px;margin-left:4px;&quot;&gt;&lt;br&gt;&lt;/p&gt;" style="verticalAlign=top;align=left;overflow=fill;fontSize=12;fontFamily=Helvetica;html=1;whiteSpace=wrap;" parent="1" vertex="1">
          <mxGeometry x="1780" y="700" width="210" height="50" as="geometry" />
        </mxCell>
        <mxCell id="q3BTvN16tAjIIbaI-m22-10" value="Extends" style="endArrow=block;endSize=16;endFill=0;html=1;rounded=0;exitX=1;exitY=0.25;exitDx=0;exitDy=0;entryX=0;entryY=0.5;entryDx=0;entryDy=0;" parent="1" source="q3BTvN16tAjIIbaI-m22-7" target="q3BTvN16tAjIIbaI-m22-8" edge="1">
          <mxGeometry width="160" relative="1" as="geometry">
            <mxPoint x="1450" y="1040" as="sourcePoint" />
            <mxPoint x="1610" y="1040" as="targetPoint" />
          </mxGeometry>
        </mxCell>
        <mxCell id="q3BTvN16tAjIIbaI-m22-11" value="&lt;p style=&quot;margin:0px;margin-top:4px;text-align:center;&quot;&gt;&lt;b&gt;&amp;lt;class&amp;gt;&lt;/b&gt;&lt;/p&gt;&lt;p style=&quot;margin:0px;margin-top:4px;text-align:center;&quot;&gt;&lt;b&gt;UdpClient&lt;/b&gt;&lt;/p&gt;&lt;hr size=&quot;1&quot;&gt;&lt;p style=&quot;margin:0px;margin-left:4px;&quot;&gt;- mThread: Thread&lt;/p&gt;&lt;p style=&quot;margin:0px;margin-left:4px;&quot;&gt;- &lt;u&gt;MAX_UDP_DATAGRAM_LEGTH&lt;/u&gt;: int&lt;/p&gt;&lt;p style=&quot;margin:0px;margin-left:4px;&quot;&gt;- &lt;u&gt;kTHREAD_SLEEP_TIME&lt;/u&gt;: int&lt;/p&gt;&lt;p style=&quot;margin:0px;margin-left:4px;&quot;&gt;- mSocket: DatagramSocket&lt;/p&gt;&lt;hr size=&quot;1&quot;&gt;&lt;p style=&quot;margin:0px;margin-left:4px;&quot;&gt;+ disconnect(): void&lt;/p&gt;&lt;p style=&quot;margin:0px;margin-left:4px;&quot;&gt;+ connect(address: InetAddress, port: int, asyncDataReceiver: AsyncReceiver): void&lt;/p&gt;&lt;p style=&quot;margin:0px;margin-left:4px;&quot;&gt;+ send(message: String): void&lt;/p&gt;&lt;p style=&quot;margin:0px;margin-left:4px;&quot;&gt;+ startListening(): void&lt;/p&gt;&lt;p style=&quot;margin:0px;margin-left:4px;&quot;&gt;+ stopListening(): void&lt;/p&gt;" style="verticalAlign=top;align=left;overflow=fill;fontSize=12;fontFamily=Helvetica;html=1;whiteSpace=wrap;" parent="1" vertex="1">
          <mxGeometry x="1020" y="1100" width="510" height="210" as="geometry" />
        </mxCell>
        <mxCell id="q3BTvN16tAjIIbaI-m22-12" value="&lt;p style=&quot;margin:0px;margin-top:4px;text-align:center;&quot;&gt;&lt;b&gt;DatagramPacket&lt;/b&gt;&lt;/p&gt;&lt;p style=&quot;margin:0px;margin-left:4px;&quot;&gt;&lt;br&gt;&lt;/p&gt;" style="verticalAlign=top;align=left;overflow=fill;fontSize=12;fontFamily=Helvetica;html=1;whiteSpace=wrap;" parent="1" vertex="1">
          <mxGeometry x="1347.5" y="1720" width="160" height="30" as="geometry" />
        </mxCell>
        <mxCell id="q3BTvN16tAjIIbaI-m22-14" value="java.net" style="text;align=center;fontStyle=1;verticalAlign=middle;spacingLeft=3;spacingRight=3;strokeColor=none;rotatable=0;points=[[0,0.5],[1,0.5]];portConstraint=eastwest;html=1;" parent="1" vertex="1">
          <mxGeometry x="1337.5" y="1480" width="80" height="26" as="geometry" />
        </mxCell>
        <mxCell id="q3BTvN16tAjIIbaI-m22-15" value="&lt;p style=&quot;margin:0px;margin-top:4px;text-align:center;&quot;&gt;&lt;b&gt;DatagramSocket&lt;/b&gt;&lt;/p&gt;&lt;p style=&quot;margin:0px;margin-left:4px;&quot;&gt;&lt;br&gt;&lt;/p&gt;" style="verticalAlign=top;align=left;overflow=fill;fontSize=12;fontFamily=Helvetica;html=1;whiteSpace=wrap;" parent="1" vertex="1">
          <mxGeometry x="1347.5" y="1540" width="160" height="30" as="geometry" />
        </mxCell>
        <mxCell id="q3BTvN16tAjIIbaI-m22-16" value="&lt;p style=&quot;margin:0px;margin-top:4px;text-align:center;&quot;&gt;&lt;b&gt;InetAddress&lt;/b&gt;&lt;/p&gt;" style="verticalAlign=top;align=left;overflow=fill;fontSize=12;fontFamily=Helvetica;html=1;whiteSpace=wrap;" parent="1" vertex="1">
          <mxGeometry x="1347.5" y="1660" width="160" height="30" as="geometry" />
        </mxCell>
        <mxCell id="q3BTvN16tAjIIbaI-m22-17" value="&lt;p style=&quot;margin:0px;margin-top:4px;text-align:center;&quot;&gt;&lt;b&gt;SocketException&lt;/b&gt;&lt;/p&gt;" style="verticalAlign=top;align=left;overflow=fill;fontSize=12;fontFamily=Helvetica;html=1;whiteSpace=wrap;" parent="1" vertex="1">
          <mxGeometry x="1347.5" y="1600" width="160" height="30" as="geometry" />
        </mxCell>
        <mxCell id="q3BTvN16tAjIIbaI-m22-23" value="" style="shape=folder;fontStyle=1;spacingTop=10;tabWidth=210;tabHeight=40;tabPosition=left;html=1;whiteSpace=wrap;align=left;" parent="1" vertex="1">
          <mxGeometry x="1750" y="1440" width="250" height="290" as="geometry" />
        </mxCell>
        <mxCell id="q3BTvN16tAjIIbaI-m22-24" value="com.example.remotecontrollapp" style="text;align=center;fontStyle=1;verticalAlign=middle;spacingLeft=3;spacingRight=3;strokeColor=none;rotatable=0;points=[[0,0.5],[1,0.5]];portConstraint=eastwest;html=1;" parent="1" vertex="1">
          <mxGeometry x="1820" y="1450" width="80" height="26" as="geometry" />
        </mxCell>
        <mxCell id="q3BTvN16tAjIIbaI-m22-25" value="&lt;p style=&quot;margin:0px;margin-top:4px;text-align:center;&quot;&gt;&lt;b&gt;AsyncReceiver&lt;/b&gt;&lt;/p&gt;" style="verticalAlign=top;align=left;overflow=fill;fontSize=12;fontFamily=Helvetica;html=1;whiteSpace=wrap;" parent="1" vertex="1">
          <mxGeometry x="1785" y="1550" width="160" height="30" as="geometry" />
        </mxCell>
        <mxCell id="q3BTvN16tAjIIbaI-m22-26" value="&lt;p style=&quot;margin:0px;margin-top:4px;text-align:center;&quot;&gt;&lt;b&gt;Singleton&lt;/b&gt;&lt;/p&gt;" style="verticalAlign=top;align=left;overflow=fill;fontSize=12;fontFamily=Helvetica;html=1;whiteSpace=wrap;" parent="1" vertex="1">
          <mxGeometry x="1785" y="1500" width="160" height="30" as="geometry" />
        </mxCell>
        <mxCell id="q3BTvN16tAjIIbaI-m22-27" value="&lt;p style=&quot;margin:0px;margin-top:4px;text-align:center;&quot;&gt;&lt;b&gt;Constants&lt;/b&gt;&lt;/p&gt;" style="verticalAlign=top;align=left;overflow=fill;fontSize=12;fontFamily=Helvetica;html=1;whiteSpace=wrap;" parent="1" vertex="1">
          <mxGeometry x="1785" y="1610" width="160" height="30" as="geometry" />
        </mxCell>
        <mxCell id="q3BTvN16tAjIIbaI-m22-28" value="" style="shape=folder;fontStyle=1;spacingTop=10;tabWidth=210;tabHeight=40;tabPosition=left;html=1;whiteSpace=wrap;align=left;" parent="1" vertex="1">
          <mxGeometry x="1750" y="890" width="265" height="360" as="geometry" />
        </mxCell>
        <mxCell id="q3BTvN16tAjIIbaI-m22-30" value="io.grpc" style="text;align=center;fontStyle=1;verticalAlign=middle;spacingLeft=3;spacingRight=3;strokeColor=none;rotatable=0;points=[[0,0.5],[1,0.5]];portConstraint=eastwest;html=1;" parent="1" vertex="1">
          <mxGeometry x="1810" y="500" width="80" height="26" as="geometry" />
        </mxCell>
        <mxCell id="q3BTvN16tAjIIbaI-m22-31" value="&lt;p style=&quot;margin:0px;margin-top:4px;text-align:center;&quot;&gt;&lt;b&gt;ManagedChannel&lt;/b&gt;&lt;/p&gt;&lt;p style=&quot;margin:0px;margin-left:4px;&quot;&gt;&lt;br&gt;&lt;/p&gt;" style="verticalAlign=top;align=left;overflow=fill;fontSize=12;fontFamily=Helvetica;html=1;whiteSpace=wrap;" parent="1" vertex="1">
          <mxGeometry x="1780" y="550" width="210" height="40" as="geometry" />
        </mxCell>
        <mxCell id="q3BTvN16tAjIIbaI-m22-32" value="&lt;p style=&quot;margin:0px;margin-top:4px;text-align:center;&quot;&gt;&lt;b&gt;Status&lt;/b&gt;&lt;/p&gt;" style="verticalAlign=top;align=left;overflow=fill;fontSize=12;fontFamily=Helvetica;html=1;whiteSpace=wrap;" parent="1" vertex="1">
          <mxGeometry x="1780" y="600" width="210" height="40" as="geometry" />
        </mxCell>
        <mxCell id="q3BTvN16tAjIIbaI-m22-33" value="&lt;p style=&quot;margin:0px;margin-top:4px;text-align:center;&quot;&gt;&lt;b&gt;auth.ClientAuthInterceptor&lt;/b&gt;&lt;/p&gt;" style="verticalAlign=top;align=left;overflow=fill;fontSize=12;fontFamily=Helvetica;html=1;whiteSpace=wrap;" parent="1" vertex="1">
          <mxGeometry x="1780" y="650" width="210" height="40" as="geometry" />
        </mxCell>
        <mxCell id="q3BTvN16tAjIIbaI-m22-34" value="&lt;p style=&quot;margin:0px;margin-top:4px;text-align:center;&quot;&gt;&lt;b&gt;okhttp.OkHttpChannelBuilder&lt;/b&gt;&lt;/p&gt;" style="verticalAlign=top;align=left;overflow=fill;fontSize=12;fontFamily=Helvetica;html=1;whiteSpace=wrap;" parent="1" vertex="1">
          <mxGeometry x="1780" y="760" width="210" height="40" as="geometry" />
        </mxCell>
        <mxCell id="q3BTvN16tAjIIbaI-m22-35" value="&lt;p style=&quot;margin:0px;margin-top:4px;text-align:center;&quot;&gt;&lt;b&gt;okhttp.OkHttpChannelProvider&lt;/b&gt;&lt;/p&gt;" style="verticalAlign=top;align=left;overflow=fill;fontSize=12;fontFamily=Helvetica;html=1;whiteSpace=wrap;" parent="1" vertex="1">
          <mxGeometry x="1780" y="810" width="210" height="40" as="geometry" />
        </mxCell>
        <mxCell id="q3BTvN16tAjIIbaI-m22-36" value="com.google.cloud.speech.v1" style="text;align=center;fontStyle=1;verticalAlign=middle;spacingLeft=3;spacingRight=3;strokeColor=none;rotatable=0;points=[[0,0.5],[1,0.5]];portConstraint=eastwest;html=1;" parent="1" vertex="1">
          <mxGeometry x="1815" y="900" width="80" height="26" as="geometry" />
        </mxCell>
        <mxCell id="q3BTvN16tAjIIbaI-m22-37" value="&lt;p style=&quot;margin:0px;margin-top:4px;text-align:center;&quot;&gt;&lt;b&gt;RecognitionConfig&lt;/b&gt;&lt;/p&gt;" style="verticalAlign=top;align=left;overflow=fill;fontSize=12;fontFamily=Helvetica;html=1;whiteSpace=wrap;" parent="1" vertex="1">
          <mxGeometry x="1775" y="950" width="160" height="30" as="geometry" />
        </mxCell>
        <mxCell id="q3BTvN16tAjIIbaI-m22-38" value="&lt;p style=&quot;margin:0px;margin-top:4px;text-align:center;&quot;&gt;&lt;b&gt;SpeechGrpc&lt;/b&gt;&lt;/p&gt;" style="verticalAlign=top;align=left;overflow=fill;fontSize=12;fontFamily=Helvetica;html=1;whiteSpace=wrap;" parent="1" vertex="1">
          <mxGeometry x="1775" y="1000" width="160" height="30" as="geometry" />
        </mxCell>
        <mxCell id="q3BTvN16tAjIIbaI-m22-39" value="&lt;p style=&quot;margin:0px;margin-top:4px;text-align:center;&quot;&gt;&lt;b&gt;SpeechRecognitionAlternative&lt;/b&gt;&lt;/p&gt;" style="verticalAlign=top;align=left;overflow=fill;fontSize=12;fontFamily=Helvetica;html=1;whiteSpace=wrap;" parent="1" vertex="1">
          <mxGeometry x="1775" y="1050" width="200" height="30" as="geometry" />
        </mxCell>
        <mxCell id="q3BTvN16tAjIIbaI-m22-40" value="&lt;p style=&quot;margin:0px;margin-top:4px;text-align:center;&quot;&gt;&lt;b&gt;StreamingRecognitionResult&lt;/b&gt;&lt;/p&gt;" style="verticalAlign=top;align=left;overflow=fill;fontSize=12;fontFamily=Helvetica;html=1;whiteSpace=wrap;" parent="1" vertex="1">
          <mxGeometry x="1775" y="1100" width="200" height="30" as="geometry" />
        </mxCell>
        <mxCell id="q3BTvN16tAjIIbaI-m22-41" value="&lt;p style=&quot;margin:0px;margin-top:4px;text-align:center;&quot;&gt;&lt;b&gt;StreamingRecognizeRequest&lt;/b&gt;&lt;/p&gt;" style="verticalAlign=top;align=left;overflow=fill;fontSize=12;fontFamily=Helvetica;html=1;whiteSpace=wrap;" parent="1" vertex="1">
          <mxGeometry x="1775" y="1150" width="200" height="30" as="geometry" />
        </mxCell>
        <mxCell id="q3BTvN16tAjIIbaI-m22-42" value="&lt;p style=&quot;margin:0px;margin-top:4px;text-align:center;&quot;&gt;&lt;b&gt;StreamingRecognizeResponse&lt;/b&gt;&lt;/p&gt;" style="verticalAlign=top;align=left;overflow=fill;fontSize=12;fontFamily=Helvetica;html=1;whiteSpace=wrap;" parent="1" vertex="1">
          <mxGeometry x="1775" y="1190" width="200" height="30" as="geometry" />
        </mxCell>
        <mxCell id="q3BTvN16tAjIIbaI-m22-43" value="&lt;p style=&quot;margin:0px;margin-top:4px;text-align:center;&quot;&gt;&lt;b&gt;&amp;lt;class&amp;gt;&lt;/b&gt;&lt;/p&gt;&lt;p style=&quot;margin:0px;margin-top:4px;text-align:center;&quot;&gt;&lt;b&gt;com.google.auth.oauth2.GoogleCredentials&lt;/b&gt;&lt;/p&gt;" style="verticalAlign=top;align=left;overflow=fill;fontSize=12;fontFamily=Helvetica;html=1;whiteSpace=wrap;" parent="1" vertex="1">
          <mxGeometry x="1750" y="1350" width="290" height="50" as="geometry" />
        </mxCell>
        <mxCell id="q3BTvN16tAjIIbaI-m22-44" value="&lt;p style=&quot;margin:0px;margin-top:4px;text-align:center;&quot;&gt;&lt;b&gt;&amp;lt;class&amp;gt;&lt;/b&gt;&lt;/p&gt;&lt;p style=&quot;margin:0px;margin-top:4px;text-align:center;&quot;&gt;&lt;b&gt;com.google.protobuf.ByteString&lt;/b&gt;&lt;/p&gt;" style="verticalAlign=top;align=left;overflow=fill;fontSize=12;fontFamily=Helvetica;html=1;whiteSpace=wrap;" parent="1" vertex="1">
          <mxGeometry x="1750" y="1270" width="270" height="50" as="geometry" />
        </mxCell>
        <mxCell id="q3BTvN16tAjIIbaI-m22-45" value="java.io" style="shape=folder;fontStyle=1;spacingTop=10;tabWidth=40;tabHeight=14;tabPosition=left;html=1;whiteSpace=wrap;" parent="1" vertex="1">
          <mxGeometry x="1560" y="350" width="140" height="90" as="geometry" />
        </mxCell>
        <mxCell id="q3BTvN16tAjIIbaI-m22-46" value="java.util" style="shape=folder;fontStyle=1;spacingTop=10;tabWidth=40;tabHeight=14;tabPosition=left;html=1;whiteSpace=wrap;" parent="1" vertex="1">
          <mxGeometry x="1750" y="360" width="140" height="90" as="geometry" />
        </mxCell>
        <mxCell id="q3BTvN16tAjIIbaI-m22-47" value="android" style="shape=folder;fontStyle=1;spacingTop=10;tabWidth=40;tabHeight=14;tabPosition=left;html=1;whiteSpace=wrap;" parent="1" vertex="1">
          <mxGeometry x="1160" y="350" width="140" height="90" as="geometry" />
        </mxCell>
        <mxCell id="q3BTvN16tAjIIbaI-m22-48" value="androidx" style="shape=folder;fontStyle=1;spacingTop=10;tabWidth=40;tabHeight=14;tabPosition=left;html=1;whiteSpace=wrap;" parent="1" vertex="1">
          <mxGeometry x="1360" y="350" width="140" height="90" as="geometry" />
        </mxCell>
        <mxCell id="q3BTvN16tAjIIbaI-m22-50" value="&lt;p style=&quot;margin:0px;margin-top:4px;text-align:center;&quot;&gt;&lt;b&gt;stbs.ChooseConnection&lt;/b&gt;&lt;/p&gt;" style="verticalAlign=top;align=left;overflow=fill;fontSize=12;fontFamily=Helvetica;html=1;whiteSpace=wrap;" parent="1" vertex="1">
          <mxGeometry x="1785" y="1670" width="160" height="30" as="geometry" />
        </mxCell>
        <mxCell id="Ox5dQKx0accEj5RNueRc-2" value="" style="endArrow=block;dashed=1;endFill=0;endSize=12;html=1;rounded=0;exitX=1;exitY=0.25;exitDx=0;exitDy=0;entryX=0;entryY=0.25;entryDx=0;entryDy=0;" edge="1" parent="1" source="q3BTvN16tAjIIbaI-m22-1" target="q3BTvN16tAjIIbaI-m22-11">
          <mxGeometry width="160" relative="1" as="geometry">
            <mxPoint x="1060" y="940" as="sourcePoint" />
            <mxPoint x="1220" y="940" as="targetPoint" />
          </mxGeometry>
        </mxCell>
        <mxCell id="Ox5dQKx0accEj5RNueRc-6" value="Use" style="endArrow=open;endSize=12;dashed=1;html=1;rounded=0;exitX=1;exitY=0.25;exitDx=0;exitDy=0;entryX=0;entryY=0.5;entryDx=0;entryDy=0;" edge="1" parent="1" source="q3BTvN16tAjIIbaI-m22-2" target="q3BTvN16tAjIIbaI-m22-31">
          <mxGeometry width="160" relative="1" as="geometry">
            <mxPoint x="1060" y="580" as="sourcePoint" />
            <mxPoint x="1220" y="580" as="targetPoint" />
          </mxGeometry>
        </mxCell>
        <mxCell id="Ox5dQKx0accEj5RNueRc-7" value="Use" style="endArrow=open;endSize=12;dashed=1;html=1;rounded=0;exitX=1;exitY=0.25;exitDx=0;exitDy=0;entryX=0;entryY=0;entryDx=0;entryDy=90;entryPerimeter=0;" edge="1" parent="1" source="q3BTvN16tAjIIbaI-m22-2" target="q3BTvN16tAjIIbaI-m22-48">
          <mxGeometry width="160" relative="1" as="geometry">
            <mxPoint x="1060" y="580" as="sourcePoint" />
            <mxPoint x="1220" y="580" as="targetPoint" />
          </mxGeometry>
        </mxCell>
        <mxCell id="Ox5dQKx0accEj5RNueRc-8" value="Use" style="endArrow=open;endSize=12;dashed=1;html=1;rounded=0;exitX=1;exitY=0.25;exitDx=0;exitDy=0;entryX=0;entryY=0;entryDx=0;entryDy=90;entryPerimeter=0;" edge="1" parent="1" source="q3BTvN16tAjIIbaI-m22-2" target="q3BTvN16tAjIIbaI-m22-47">
          <mxGeometry width="160" relative="1" as="geometry">
            <mxPoint x="1060" y="580" as="sourcePoint" />
            <mxPoint x="1220" y="580" as="targetPoint" />
          </mxGeometry>
        </mxCell>
        <mxCell id="Ox5dQKx0accEj5RNueRc-9" value="Use" style="endArrow=open;endSize=12;dashed=1;html=1;rounded=0;exitX=1;exitY=0.25;exitDx=0;exitDy=0;entryX=0;entryY=0;entryDx=0;entryDy=90;entryPerimeter=0;" edge="1" parent="1" source="q3BTvN16tAjIIbaI-m22-2" target="q3BTvN16tAjIIbaI-m22-45">
          <mxGeometry width="160" relative="1" as="geometry">
            <mxPoint x="1420" y="620" as="sourcePoint" />
            <mxPoint x="1580" y="620" as="targetPoint" />
          </mxGeometry>
        </mxCell>
        <mxCell id="Ox5dQKx0accEj5RNueRc-10" value="Use" style="endArrow=open;endSize=12;dashed=1;html=1;rounded=0;exitX=0.25;exitY=1;exitDx=0;exitDy=0;entryX=0;entryY=0.5;entryDx=0;entryDy=0;" edge="1" parent="1" source="q3BTvN16tAjIIbaI-m22-11" target="q3BTvN16tAjIIbaI-m22-12">
          <mxGeometry width="160" relative="1" as="geometry">
            <mxPoint x="1500" y="1060" as="sourcePoint" />
            <mxPoint x="1660" y="1060" as="targetPoint" />
          </mxGeometry>
        </mxCell>
        <mxCell id="Ox5dQKx0accEj5RNueRc-11" value="Use" style="endArrow=open;endSize=12;dashed=1;html=1;rounded=0;exitX=0.25;exitY=1;exitDx=0;exitDy=0;entryX=0;entryY=0.5;entryDx=0;entryDy=0;" edge="1" parent="1" source="q3BTvN16tAjIIbaI-m22-11" target="q3BTvN16tAjIIbaI-m22-15">
          <mxGeometry width="160" relative="1" as="geometry">
            <mxPoint x="1540" y="1215" as="sourcePoint" />
            <mxPoint x="1795" y="955" as="targetPoint" />
          </mxGeometry>
        </mxCell>
        <mxCell id="Ox5dQKx0accEj5RNueRc-12" value="Use" style="endArrow=open;endSize=12;dashed=1;html=1;rounded=0;exitX=0.25;exitY=1;exitDx=0;exitDy=0;entryX=0;entryY=0.5;entryDx=0;entryDy=0;" edge="1" parent="1" source="q3BTvN16tAjIIbaI-m22-11" target="q3BTvN16tAjIIbaI-m22-16">
          <mxGeometry width="160" relative="1" as="geometry">
            <mxPoint x="1540" y="1215" as="sourcePoint" />
            <mxPoint x="1795" y="1015" as="targetPoint" />
          </mxGeometry>
        </mxCell>
        <mxCell id="Ox5dQKx0accEj5RNueRc-13" value="Use" style="endArrow=open;endSize=12;dashed=1;html=1;rounded=0;exitX=0.25;exitY=1;exitDx=0;exitDy=0;entryX=0;entryY=0.5;entryDx=0;entryDy=0;" edge="1" parent="1" source="q3BTvN16tAjIIbaI-m22-11" target="q3BTvN16tAjIIbaI-m22-17">
          <mxGeometry width="160" relative="1" as="geometry">
            <mxPoint x="1540" y="1215" as="sourcePoint" />
            <mxPoint x="1795" y="1065" as="targetPoint" />
          </mxGeometry>
        </mxCell>
        <mxCell id="Ox5dQKx0accEj5RNueRc-14" value="Use" style="endArrow=open;endSize=12;dashed=1;html=1;rounded=0;exitX=1;exitY=0.5;exitDx=0;exitDy=0;entryX=0;entryY=0.5;entryDx=0;entryDy=0;" edge="1" parent="1" source="q3BTvN16tAjIIbaI-m22-11" target="q3BTvN16tAjIIbaI-m22-25">
          <mxGeometry width="160" relative="1" as="geometry">
            <mxPoint x="1980" y="1340" as="sourcePoint" />
            <mxPoint x="2140" y="1340" as="targetPoint" />
          </mxGeometry>
        </mxCell>
        <mxCell id="Ox5dQKx0accEj5RNueRc-15" value="Use" style="endArrow=open;endSize=12;dashed=1;html=1;rounded=0;exitX=1;exitY=0.5;exitDx=0;exitDy=0;entryX=0;entryY=0.5;entryDx=0;entryDy=0;" edge="1" parent="1" source="q3BTvN16tAjIIbaI-m22-11" target="q3BTvN16tAjIIbaI-m22-26">
          <mxGeometry width="160" relative="1" as="geometry">
            <mxPoint x="1540" y="1215" as="sourcePoint" />
            <mxPoint x="1795" y="1315" as="targetPoint" />
          </mxGeometry>
        </mxCell>
        <mxCell id="Ox5dQKx0accEj5RNueRc-19" value="Use" style="endArrow=open;endSize=12;dashed=1;html=1;rounded=0;exitX=1;exitY=0;exitDx=0;exitDy=0;entryX=0;entryY=0;entryDx=0;entryDy=90;entryPerimeter=0;" edge="1" parent="1" source="q3BTvN16tAjIIbaI-m22-1" target="q3BTvN16tAjIIbaI-m22-47">
          <mxGeometry width="160" relative="1" as="geometry">
            <mxPoint x="880" y="872.5" as="sourcePoint" />
            <mxPoint x="1040" y="872.5" as="targetPoint" />
          </mxGeometry>
        </mxCell>
        <mxCell id="Ox5dQKx0accEj5RNueRc-20" value="Use" style="endArrow=open;endSize=12;dashed=1;html=1;rounded=0;exitX=1.004;exitY=0.588;exitDx=0;exitDy=0;exitPerimeter=0;entryX=0;entryY=0.5;entryDx=0;entryDy=0;" edge="1" parent="1" source="q3BTvN16tAjIIbaI-m22-1" target="q3BTvN16tAjIIbaI-m22-26">
          <mxGeometry width="160" relative="1" as="geometry">
            <mxPoint x="1420" y="1380" as="sourcePoint" />
            <mxPoint x="1780" y="1305" as="targetPoint" />
          </mxGeometry>
        </mxCell>
        <mxCell id="Ox5dQKx0accEj5RNueRc-21" value="Use" style="endArrow=open;endSize=12;dashed=1;html=1;rounded=0;exitX=0.5;exitY=0;exitDx=0;exitDy=0;entryX=0.5;entryY=1;entryDx=0;entryDy=0;entryPerimeter=0;" edge="1" parent="1" source="q3BTvN16tAjIIbaI-m22-7" target="q3BTvN16tAjIIbaI-m22-45">
          <mxGeometry width="160" relative="1" as="geometry">
            <mxPoint x="1500" y="660" as="sourcePoint" />
            <mxPoint x="1660" y="660" as="targetPoint" />
          </mxGeometry>
        </mxCell>
        <mxCell id="Ox5dQKx0accEj5RNueRc-22" value="Use" style="endArrow=open;endSize=12;dashed=1;html=1;rounded=0;exitX=0.5;exitY=0;exitDx=0;exitDy=0;entryX=0;entryY=0;entryDx=0;entryDy=90;entryPerimeter=0;" edge="1" parent="1" source="q3BTvN16tAjIIbaI-m22-7" target="q3BTvN16tAjIIbaI-m22-46">
          <mxGeometry width="160" relative="1" as="geometry">
            <mxPoint x="1305" y="670" as="sourcePoint" />
            <mxPoint x="1640" y="450" as="targetPoint" />
          </mxGeometry>
        </mxCell>
        <mxCell id="Ox5dQKx0accEj5RNueRc-23" value="Use" style="endArrow=open;endSize=12;dashed=1;html=1;rounded=0;exitX=1;exitY=0.25;exitDx=0;exitDy=0;entryX=0;entryY=0.5;entryDx=0;entryDy=0;" edge="1" parent="1" source="q3BTvN16tAjIIbaI-m22-7" target="q3BTvN16tAjIIbaI-m22-31">
          <mxGeometry width="160" relative="1" as="geometry">
            <mxPoint x="1700" y="670" as="sourcePoint" />
            <mxPoint x="1860" y="670" as="targetPoint" />
          </mxGeometry>
        </mxCell>
        <mxCell id="Ox5dQKx0accEj5RNueRc-24" value="Use" style="endArrow=open;endSize=12;dashed=1;html=1;rounded=0;exitX=1;exitY=0.25;exitDx=0;exitDy=0;entryX=0;entryY=0.5;entryDx=0;entryDy=0;" edge="1" parent="1" source="q3BTvN16tAjIIbaI-m22-7" target="q3BTvN16tAjIIbaI-m22-32">
          <mxGeometry width="160" relative="1" as="geometry">
            <mxPoint x="1530" y="748" as="sourcePoint" />
            <mxPoint x="1790" y="580" as="targetPoint" />
          </mxGeometry>
        </mxCell>
        <mxCell id="Ox5dQKx0accEj5RNueRc-25" value="Use" style="endArrow=open;endSize=12;dashed=1;html=1;rounded=0;exitX=1;exitY=0.25;exitDx=0;exitDy=0;entryX=0;entryY=0.5;entryDx=0;entryDy=0;" edge="1" parent="1" source="q3BTvN16tAjIIbaI-m22-7" target="q3BTvN16tAjIIbaI-m22-33">
          <mxGeometry width="160" relative="1" as="geometry">
            <mxPoint x="1530" y="748" as="sourcePoint" />
            <mxPoint x="1790" y="630" as="targetPoint" />
          </mxGeometry>
        </mxCell>
        <mxCell id="Ox5dQKx0accEj5RNueRc-26" value="Use" style="endArrow=open;endSize=12;dashed=1;html=1;rounded=0;exitX=1;exitY=0.25;exitDx=0;exitDy=0;entryX=0;entryY=0.5;entryDx=0;entryDy=0;" edge="1" parent="1" source="q3BTvN16tAjIIbaI-m22-7" target="q3BTvN16tAjIIbaI-m22-34">
          <mxGeometry width="160" relative="1" as="geometry">
            <mxPoint x="1530" y="748" as="sourcePoint" />
            <mxPoint x="1790" y="680" as="targetPoint" />
          </mxGeometry>
        </mxCell>
        <mxCell id="Ox5dQKx0accEj5RNueRc-27" value="Use" style="endArrow=open;endSize=12;dashed=1;html=1;rounded=0;exitX=1;exitY=0.25;exitDx=0;exitDy=0;entryX=0;entryY=0.5;entryDx=0;entryDy=0;" edge="1" parent="1" source="q3BTvN16tAjIIbaI-m22-7" target="q3BTvN16tAjIIbaI-m22-35">
          <mxGeometry width="160" relative="1" as="geometry">
            <mxPoint x="1530" y="748" as="sourcePoint" />
            <mxPoint x="1790" y="790" as="targetPoint" />
          </mxGeometry>
        </mxCell>
        <mxCell id="Ox5dQKx0accEj5RNueRc-28" value="Use" style="endArrow=open;endSize=12;dashed=1;html=1;rounded=0;exitX=1;exitY=0.5;exitDx=0;exitDy=0;entryX=0;entryY=0.5;entryDx=0;entryDy=0;" edge="1" parent="1" source="q3BTvN16tAjIIbaI-m22-11" target="q3BTvN16tAjIIbaI-m22-43">
          <mxGeometry width="160" relative="1" as="geometry">
            <mxPoint x="1580" y="1280" as="sourcePoint" />
            <mxPoint x="1740" y="1280" as="targetPoint" />
          </mxGeometry>
        </mxCell>
        <mxCell id="Ox5dQKx0accEj5RNueRc-29" value="Use" style="endArrow=open;endSize=12;dashed=1;html=1;rounded=0;exitX=1;exitY=0.5;exitDx=0;exitDy=0;entryX=0;entryY=0.5;entryDx=0;entryDy=0;" edge="1" parent="1" source="q3BTvN16tAjIIbaI-m22-11" target="q3BTvN16tAjIIbaI-m22-44">
          <mxGeometry width="160" relative="1" as="geometry">
            <mxPoint x="1540" y="1215" as="sourcePoint" />
            <mxPoint x="1760" y="1385" as="targetPoint" />
          </mxGeometry>
        </mxCell>
        <mxCell id="Ox5dQKx0accEj5RNueRc-30" value="Use" style="endArrow=open;endSize=12;dashed=1;html=1;rounded=0;exitX=1;exitY=0.5;exitDx=0;exitDy=0;entryX=0;entryY=0.5;entryDx=0;entryDy=0;" edge="1" parent="1" source="q3BTvN16tAjIIbaI-m22-11" target="q3BTvN16tAjIIbaI-m22-42">
          <mxGeometry width="160" relative="1" as="geometry">
            <mxPoint x="1540" y="1215" as="sourcePoint" />
            <mxPoint x="1760" y="1305" as="targetPoint" />
          </mxGeometry>
        </mxCell>
        <mxCell id="Ox5dQKx0accEj5RNueRc-31" value="Use" style="endArrow=open;endSize=12;dashed=1;html=1;rounded=0;exitX=1;exitY=0.5;exitDx=0;exitDy=0;entryX=0;entryY=0.5;entryDx=0;entryDy=0;" edge="1" parent="1" source="q3BTvN16tAjIIbaI-m22-11" target="q3BTvN16tAjIIbaI-m22-41">
          <mxGeometry width="160" relative="1" as="geometry">
            <mxPoint x="1540" y="1215" as="sourcePoint" />
            <mxPoint x="1785" y="1215" as="targetPoint" />
          </mxGeometry>
        </mxCell>
        <mxCell id="Ox5dQKx0accEj5RNueRc-32" value="Use" style="endArrow=open;endSize=12;dashed=1;html=1;rounded=0;exitX=1;exitY=0.5;exitDx=0;exitDy=0;entryX=0;entryY=0.5;entryDx=0;entryDy=0;" edge="1" parent="1" source="q3BTvN16tAjIIbaI-m22-11" target="q3BTvN16tAjIIbaI-m22-40">
          <mxGeometry width="160" relative="1" as="geometry">
            <mxPoint x="1540" y="1215" as="sourcePoint" />
            <mxPoint x="1785" y="1175" as="targetPoint" />
          </mxGeometry>
        </mxCell>
        <mxCell id="Ox5dQKx0accEj5RNueRc-33" value="Use" style="endArrow=open;endSize=12;dashed=1;html=1;rounded=0;exitX=1;exitY=0.5;exitDx=0;exitDy=0;entryX=0;entryY=0.5;entryDx=0;entryDy=0;" edge="1" parent="1" source="q3BTvN16tAjIIbaI-m22-11" target="q3BTvN16tAjIIbaI-m22-39">
          <mxGeometry width="160" relative="1" as="geometry">
            <mxPoint x="1540" y="1215" as="sourcePoint" />
            <mxPoint x="1785" y="1125" as="targetPoint" />
          </mxGeometry>
        </mxCell>
        <mxCell id="Ox5dQKx0accEj5RNueRc-34" value="Use" style="endArrow=open;endSize=12;dashed=1;html=1;rounded=0;exitX=1;exitY=0.5;exitDx=0;exitDy=0;entryX=0;entryY=0.5;entryDx=0;entryDy=0;" edge="1" parent="1" source="q3BTvN16tAjIIbaI-m22-11" target="q3BTvN16tAjIIbaI-m22-38">
          <mxGeometry width="160" relative="1" as="geometry">
            <mxPoint x="1540" y="1215" as="sourcePoint" />
            <mxPoint x="1785" y="1075" as="targetPoint" />
          </mxGeometry>
        </mxCell>
        <mxCell id="Ox5dQKx0accEj5RNueRc-35" value="Use" style="endArrow=open;endSize=12;dashed=1;html=1;rounded=0;exitX=1;exitY=0.5;exitDx=0;exitDy=0;entryX=0;entryY=0.5;entryDx=0;entryDy=0;" edge="1" parent="1" source="q3BTvN16tAjIIbaI-m22-11" target="q3BTvN16tAjIIbaI-m22-37">
          <mxGeometry width="160" relative="1" as="geometry">
            <mxPoint x="1540" y="1215" as="sourcePoint" />
            <mxPoint x="1785" y="1025" as="targetPoint" />
          </mxGeometry>
        </mxCell>
      </root>
    </mxGraphModel>
  </diagram>
</mxfile>
